<?xml version="1.0" standalone="no"?>
<!DOCTYPE svg PUBLIC "-//W3C//DTD SVG 20010904//EN"
 "http://www.w3.org/TR/2001/REC-SVG-20010904/DTD/svg10.dtd">
<svg version="1.0" xmlns="http://www.w3.org/2000/svg"
 width="583.000000pt" height="583.000000pt" viewBox="0 0 583.000000 583.000000"
 preserveAspectRatio="xMidYMid meet">
<metadata>
Created by potrace 1.14, written by Peter Selinger 2001-2017
</metadata>
<g transform="translate(0.000000,583.000000) scale(0.100000,-0.100000)"
fill="#000000" stroke="none">
<path d="M2358 4436 c-21 -7 -58 -35 -83 -61 -40 -43 -52 -49 -103 -57 -31 -4
-75 -5 -97 -2 -46 6 -54 1 -176 -98 -46 -38 -93 -68 -105 -68 -25 0 -50 35
-123 171 -65 124 -74 131 -101 87 -33 -53 -50 -126 -50 -212 0 -45 -7 -103
-16 -131 -12 -37 -15 -83 -12 -179 3 -109 1 -130 -13 -139 -28 -17 -63 2 -109
60 -72 90 -118 137 -63 63 27 -36 63 -87 80 -115 33 -52 93 -195 93 -220 0 -8
-15 -22 -32 -31 -18 -9 -61 -37 -96 -61 -35 -25 -69 -42 -76 -40 -8 3 -35 35
-62 71 l-48 65 -23 -25 c-24 -26 -15 -26 -170 -4 -102 14 -140 11 -64 -5 87
-19 182 -51 267 -90 53 -24 80 -44 109 -81 21 -27 52 -63 68 -81 l30 -32 -13
-65 c-7 -36 -15 -66 -19 -66 -7 0 -150 45 -172 54 -12 5 -14 0 -11 -27 3 -27
-1 -35 -20 -44 -19 -10 -3 -12 82 -12 58 -1 110 -5 116 -9 10 -6 44 -163 44
-199 0 -7 -24 -15 -60 -19 -53 -6 -60 -9 -55 -25 7 -22 -11 -59 -29 -59 -7 0
-24 -9 -37 -21 -13 -12 -42 -30 -64 -41 -58 -30 -96 -61 -145 -119 -34 -40
-40 -53 -29 -60 18 -11 113 -11 162 0 29 7 42 5 58 -8 18 -14 21 -31 26 -163
l6 -146 30 -6 c43 -9 67 -7 67 4 0 5 -15 13 -32 18 -23 6 -34 15 -36 30 -4 26
4 27 78 7 178 -47 124 -235 -67 -235 -42 0 -129 33 -158 60 l-22 21 5 -26 c5
-30 54 -59 128 -75 57 -13 145 2 186 31 34 24 45 24 58 0 18 -34 12 -86 -12
-109 -105 -98 -342 -73 -389 40 -10 25 -9 32 11 53 23 24 23 25 3 25 -11 0
-28 -9 -38 -20 -16 -17 -16 -23 -4 -52 7 -18 31 -50 52 -71 36 -35 37 -38 23
-59 -39 -56 1 -122 103 -171 65 -31 71 -50 59 -177 -11 -122 -5 -373 12 -442
11 -44 14 -48 41 -48 25 0 29 4 29 28 0 15 -7 54 -15 87 -18 76 -18 75 3 75 9
-1 30 -21 46 -46 41 -65 105 -144 116 -144 5 0 -17 37 -50 82 -33 45 -60 86
-60 91 0 6 36 7 88 5 73 -5 102 -12 182 -46 129 -55 205 -97 204 -114 -1 -10
32 -13 160 -14 l161 -2 -100 12 c-117 15 -161 29 -312 101 -158 77 -223 97
-335 104 -53 3 -99 9 -102 12 -4 3 -9 92 -12 197 -3 105 -7 199 -8 208 -1 11
13 20 42 29 115 35 185 143 137 212 -13 18 -13 24 1 53 18 36 13 80 -13 119
-12 18 -17 42 -15 81 2 40 -2 63 -16 85 -23 37 -92 74 -157 83 l-49 7 -14 99
c-7 55 -11 105 -8 111 2 7 36 20 74 29 38 10 103 32 145 50 l76 33 33 -34 c47
-50 139 -119 184 -140 21 -9 41 -19 43 -20 2 -1 -15 -20 -37 -42 -48 -47 -61
-94 -43 -159 14 -53 49 -101 99 -135 51 -36 210 -77 297 -77 120 0 320 41 428
87 53 23 46 35 -10 17 -172 -54 -247 -67 -393 -68 -127 -1 -153 2 -212 22 -87
30 -145 73 -169 125 -37 83 -17 150 57 193 70 41 152 39 304 -9 221 -70 311
-87 336 -66 10 8 52 15 109 17 121 6 143 -5 251 -126 114 -128 245 -231 385
-303 166 -84 421 -119 604 -83 44 9 87 17 94 17 9 1 31 -27 52 -66 21 -37 51
-84 68 -105 54 -68 57 -83 29 -144 -14 -29 -44 -75 -67 -103 -67 -80 -100
-146 -121 -243 -10 -50 -28 -109 -39 -131 -26 -50 -26 -51 3 -51 17 0 31 11
46 34 30 49 130 140 182 165 61 29 109 27 149 -6 40 -34 59 -79 59 -140 0 -61
16 -46 28 27 5 30 13 64 17 75 6 19 6 19 -8 2 -14 -17 -17 -16 -40 18 l-25 37
24 41 c38 67 26 141 -24 154 -39 9 -92 -53 -92 -107 0 -43 3 -40 -80 -71 -19
-7 -63 -35 -98 -61 -35 -26 -65 -48 -68 -48 -9 0 9 87 29 135 11 28 42 77 68
110 26 33 63 91 84 128 33 61 39 67 55 55 93 -70 163 -110 192 -111 32 -2 33
-1 36 42 3 36 12 54 51 98 43 48 62 88 88 182 4 15 45 8 81 -15 17 -11 21 -21
16 -37 -15 -50 -40 -93 -95 -160 -60 -73 -119 -179 -119 -214 0 -10 -6 -27
-13 -38 -16 -23 -42 -94 -29 -80 28 33 83 118 105 165 15 30 47 87 72 125 25
39 50 87 57 108 24 78 77 103 150 72 37 -15 218 -33 218 -21 0 29 -71 127
-154 213 l-50 53 29 60 c35 68 33 68 165 45 94 -16 442 -25 477 -12 35 13 13
42 -60 78 -34 18 -79 47 -100 65 -20 19 -42 34 -48 34 -11 0 -8 21 7 67 5 13
1 11 -11 -5 -14 -19 -23 -23 -48 -18 -59 12 -74 30 -79 92 -4 46 -10 61 -27
73 -22 14 -21 15 40 33 35 9 75 18 89 18 19 0 22 2 10 10 -21 13 -12 18 96 49
55 16 122 38 149 49 28 11 68 25 90 32 51 16 142 80 166 116 l18 28 -97 35
c-119 42 -234 56 -272 32 l-25 -15 40 -8 c22 -4 65 -7 95 -8 30 0 84 -7 120
-15 36 -8 75 -17 88 -20 12 -3 22 -9 22 -13 0 -14 -123 -78 -265 -140 -210
-90 -522 -172 -694 -184 -50 -3 -45 -9 -91 112 -18 47 -34 90 -37 96 -7 17
129 70 280 109 109 28 329 65 384 65 11 0 11 4 1 23 -7 12 -11 31 -9 42 4 28
38 140 50 162 13 25 36 80 52 125 7 21 32 63 56 95 24 32 43 61 43 65 0 4 32
54 70 112 40 60 70 115 70 129 0 28 -20 52 -51 62 -30 10 -36 -3 -11 -21 38
-26 24 -36 -18 -13 -21 12 -36 27 -33 32 4 7 -54 8 -170 4 l-176 -6 -98 50
c-54 28 -105 57 -113 64 -36 32 -109 54 -215 65 -130 13 -144 16 -169 42 -14
15 -26 18 -51 14 -22 -4 -36 -2 -44 8 -7 8 -24 17 -38 21 -15 3 -39 18 -53 32
-14 14 -53 39 -87 55 -35 17 -63 33 -63 37 0 19 -63 32 -189 40 -145 10 -227
32 -307 85 -47 30 -164 56 -254 56 -87 0 -170 23 -240 66 -31 19 -92 48 -136
64 -65 25 -94 30 -166 30 -93 0 -186 24 -240 62 -15 10 -47 22 -72 27 -25 5
-52 13 -59 19 -22 18 -109 23 -149 8z m-668 -191 c61 -124 98 -239 125 -385
19 -101 20 -400 1 -424 -9 -12 -30 -13 -103 -9 l-93 6 -49 52 -49 51 -7 206
c-9 263 16 505 67 631 10 27 11 27 31 10 10 -10 45 -72 77 -138z m875 125 c33
-17 75 -40 94 -52 48 -30 132 -48 236 -48 102 0 200 -29 260 -75 69 -52 166
-85 282 -94 136 -12 213 -33 283 -76 85 -51 148 -72 256 -85 253 -30 210 -17
364 -110 123 -75 185 -94 335 -106 108 -8 151 -22 219 -71 27 -20 80 -50 116
-67 58 -28 76 -31 160 -32 116 -1 200 -12 200 -26 0 -14 -127 -134 -160 -152
-14 -8 -50 -17 -80 -21 -102 -13 -273 -63 -375 -109 -82 -38 -88 -38 -141 -10
-40 21 -70 27 -165 34 -131 9 -155 17 -297 103 -98 59 -184 87 -268 87 -93 0
-175 31 -264 98 -74 56 -205 101 -295 102 -69 0 -147 30 -267 103 -20 13 -45
30 -56 40 -10 9 -21 15 -24 12 -3 -3 -21 2 -41 10 -20 8 -90 20 -155 25 -136
11 -174 23 -274 83 -101 60 -132 68 -303 76 -123 6 -157 11 -190 29 -92 48
-147 72 -163 72 -25 0 -46 16 -38 29 4 6 14 11 22 11 24 0 75 29 126 72 56 46
91 58 176 58 69 0 123 18 162 54 77 72 169 84 265 36z m-623 -331 c97 -57 113
-61 284 -69 161 -8 188 -16 311 -93 69 -43 160 -68 272 -74 116 -7 161 -21
248 -79 98 -65 170 -92 291 -108 128 -18 176 -36 269 -102 79 -56 183 -94 261
-94 98 -1 166 -24 275 -93 129 -80 149 -87 277 -94 99 -6 161 -21 175 -42 6
-10 -137 -111 -158 -111 -17 0 -178 -147 -202 -185 -11 -17 -42 -59 -70 -93
-54 -67 -47 -65 -144 -38 -128 37 -244 50 -441 50 -116 0 -215 -5 -245 -12
-172 -42 -226 -56 -292 -78 -87 -29 -237 -59 -258 -51 -8 4 -50 61 -95 127
-150 226 -212 297 -371 426 -107 87 -273 160 -410 179 -75 11 -74 9 -60 132
11 97 11 123 -8 258 -11 83 -27 173 -35 200 -24 76 -22 85 20 85 24 0 59 -14
106 -41z m-375 -597 l51 -47 117 -3 c162 -4 283 -30 414 -89 180 -81 373 -276
559 -564 46 -71 72 -89 130 -89 37 0 193 36 282 65 290 94 714 95 962 2 82
-31 160 -71 211 -108 47 -34 48 -34 139 -12 46 11 75 14 85 7 15 -9 55 -98 72
-161 11 -39 17 -36 -121 -78 l-87 -26 -30 -80 c-30 -77 -84 -162 -132 -205
-82 -74 -282 -173 -409 -203 -135 -31 -345 -19 -494 29 -100 32 -301 146 -301
170 0 8 17 23 38 33 43 21 44 28 16 68 -24 34 -37 36 -90 9 l-39 -21 15 -30
c16 -29 16 -30 -3 -20 -11 6 -67 61 -123 121 -57 61 -118 120 -135 131 -36 22
-101 24 -239 8 -92 -10 -175 -5 -175 12 0 5 6 9 13 9 6 0 18 4 26 9 21 13 -4
81 -30 81 -23 0 -24 -6 -4 -26 21 -22 19 -39 -9 -52 -38 -17 -64 26 -34 56 9
9 8 12 -4 12 -23 0 -38 -23 -31 -48 4 -15 1 -22 -9 -22 -14 0 -97 24 -178 52
-19 6 -78 13 -130 14 -111 2 -149 15 -223 76 -103 86 -148 145 -203 263 -57
124 -80 291 -53 388 12 43 6 56 -65 140 -34 41 -38 50 -25 62 27 27 164 115
179 115 8 0 38 -21 67 -48z m3891 18 c2 -29 -30 -87 -114 -202 -76 -105 -118
-188 -134 -264 -19 -97 -32 -132 -59 -164 -23 -27 -34 -32 -88 -37 l-63 -6 0
30 c0 16 -6 51 -14 77 l-15 48 99 107 c175 191 236 275 227 312 -7 26 105 132
135 127 16 -2 24 -11 26 -28z m-208 -133 c0 -12 -16 -37 -75 -113 -53 -71
-278 -294 -385 -383 -165 -138 -226 -177 -290 -185 -30 -4 -75 -14 -99 -22
-44 -15 -45 -15 -95 17 -28 18 -71 43 -95 56 -24 13 -46 25 -49 27 -15 16 169
216 267 291 197 151 406 248 651 300 124 27 170 30 170 12z m-3816 -573 c14
-30 35 -68 46 -85 l21 -29 -43 -19 c-165 -70 -458 -127 -458 -89 0 18 103 111
179 162 67 45 196 113 218 115 6 1 23 -24 37 -55z m3496 -383 c0 -24 -14 -41
-33 -41 -30 0 -137 33 -137 42 0 4 38 8 85 8 47 0 85 -4 85 -9z m-190 -36
c134 -36 327 -110 417 -161 87 -49 203 -126 203 -135 0 -14 -215 -10 -325 6
-55 9 -134 20 -175 25 -117 15 -406 88 -463 117 -30 15 -30 20 -1 89 17 41 23
44 114 71 82 23 100 22 230 -12z m271 25 c14 -8 19 -21 19 -49 0 -47 -5 -52
-38 -38 -42 17 -43 21 -27 60 17 41 18 41 46 27z m-1960 -222 c10 -18 8 -24
-11 -40 -23 -18 -24 -18 -47 3 -37 36 -28 54 29 58 10 0 23 -9 29 -21z m1366
-18 c138 -93 313 -254 398 -364 65 -85 69 -100 23 -91 -58 13 -248 86 -322
124 -91 48 -267 148 -315 180 -11 7 -3 20 42 61 31 28 66 67 77 86 12 19 28
34 37 34 8 0 35 -14 60 -30z m158 -23 c28 -8 66 -18 86 -21 19 -4 44 -12 54
-20 17 -12 17 -15 -11 -50 -16 -20 -33 -36 -37 -36 -12 0 -167 132 -167 143 0
5 6 7 13 5 6 -3 35 -12 62 -21z m-404 -204 c75 -119 123 -250 135 -370 6 -51
4 -63 -8 -63 -25 0 -131 69 -181 118 -92 88 -183 223 -175 258 3 13 159 99
186 103 7 0 26 -20 43 -46z m33 32 c3 -8 1 -15 -3 -15 -5 0 -11 7 -15 15 -3 8
-1 15 3 15 5 0 11 -7 15 -15z m90 -48 c17 -12 17 -14 -1 -45 -21 -36 -34 -36
-47 0 -17 48 9 73 48 45z m-2818 -41 c16 -67 -62 -143 -159 -153 -125 -13
-207 27 -207 101 0 46 25 61 78 46 57 -15 151 -11 202 10 62 25 79 24 86 -4z"/>
<path d="M2382 4214 c-27 -18 -29 -55 -4 -77 76 -69 404 -149 506 -123 39 10
53 46 31 80 -18 26 -103 73 -185 99 -115 38 -307 50 -348 21z"/>
<path d="M2962 3898 c-32 -32 10 -71 114 -103 89 -28 132 -31 158 -12 24 17
12 41 -32 68 -86 50 -212 75 -240 47z"/>
<path d="M3757 3878 c-12 -9 -18 -23 -15 -39 7 -56 231 -119 267 -75 11 13 11
20 -2 40 -36 54 -209 105 -250 74z"/>
<path d="M3928 3653 c-25 -6 -32 -40 -15 -67 36 -54 281 -145 434 -161 54 -5
65 -3 83 15 11 11 20 25 20 31 0 33 -164 130 -254 149 -22 5 -66 15 -96 24
-52 15 -134 19 -172 9z"/>
<path d="M4552 3644 c-66 -27 -26 -78 102 -128 129 -51 205 -45 191 13 -10 41
-43 69 -114 95 -83 31 -139 37 -179 20z"/>
<path d="M1425 3398 c-7 -25 -12 -108 -6 -109 15 -3 50 -7 96 -10 l50 -4 3 56
c3 56 3 57 -27 61 l-30 4 25 -23 c18 -16 24 -32 22 -51 -3 -23 -8 -27 -40 -30
-54 -5 -78 12 -78 53 0 24 7 39 22 49 l22 16 -27 0 c-15 0 -29 -6 -32 -12z"/>
<path d="M2000 3323 c0 -5 7 -17 15 -27 22 -29 18 -45 -11 -56 -19 -7 -31 -7
-40 1 -17 14 -18 51 -3 66 9 9 6 10 -10 6 -20 -5 -22 -11 -19 -55 3 -45 1 -49
-17 -43 -11 4 -62 9 -114 12 -78 5 -100 3 -126 -11 -46 -25 -73 -86 -81 -182
-19 -225 132 -407 415 -500 184 -61 498 -35 517 43 17 65 -52 216 -154 339
-30 36 -52 67 -49 70 2 3 22 6 43 7 39 3 39 3 39 47 0 24 -4 45 -10 47 -5 2
-10 -14 -10 -34 0 -30 -4 -39 -20 -41 -37 -4 -51 13 -38 48 10 27 9 30 -7 30
-15 0 -19 -9 -22 -46 l-3 -46 -30 27 c-57 51 -150 109 -225 142 -41 18 -74 36
-73 40 1 5 20 12 43 16 23 5 43 14 46 22 8 20 -23 85 -40 85 -9 0 -16 -3 -16
-7z m-109 -160 c9 -7 23 -11 32 -7 8 3 26 -2 39 -10 14 -9 49 -23 79 -32 29
-9 67 -27 84 -40 16 -13 35 -28 41 -33 6 -5 20 -12 32 -15 21 -7 67 -62 67
-81 0 -5 10 -9 22 -7 16 2 26 -5 39 -30 9 -18 32 -47 51 -65 27 -25 33 -36 27
-57 -5 -20 -2 -26 10 -26 15 0 48 -50 44 -67 0 -4 4 -21 10 -36 24 -58 24 -72
0 -84 -56 -27 -141 -34 -268 -23 -69 6 -143 13 -166 15 -27 2 -57 14 -91 39
-28 20 -62 36 -77 36 -15 0 -29 7 -32 15 -3 8 -30 30 -60 50 -30 20 -54 41
-54 47 0 6 -15 32 -34 57 -54 76 -68 187 -37 290 12 39 25 72 29 72 4 1 20 3
36 5 15 1 31 6 34 9 10 10 127 -7 143 -22z"/>
<path d="M1483 2960 c-16 -7 -23 -18 -23 -38 0 -34 22 -68 39 -58 8 5 7 12 -4
23 -24 24 -15 58 15 58 18 0 26 -6 28 -23 2 -13 -2 -30 -8 -38 -10 -11 -9 -14
3 -14 19 0 36 29 29 50 -7 22 -33 50 -46 49 -6 0 -21 -4 -33 -9z"/>
<path d="M2547 2773 c-4 -3 -7 -23 -7 -44 0 -30 4 -38 23 -43 27 -6 69 3 79
18 4 6 8 23 8 37 0 22 -6 28 -31 33 -41 8 -64 8 -72 -1z m80 -29 c3 -8 -2 -23
-11 -32 -20 -20 -49 -6 -54 27 -3 18 2 21 28 21 19 0 33 -6 37 -16z"/>
<path d="M3623 2732 c12 -13 16 -28 12 -41 -7 -23 1 -26 25 -11 13 8 13 13 0
37 -9 15 -25 30 -35 32 -19 3 -20 3 -2 -17z"/>
<path d="M3542 2717 c-11 -13 -10 -21 9 -46 26 -36 24 -35 52 -19 22 12 21 12
-8 18 -23 4 -31 12 -35 34 -4 26 -7 27 -18 13z"/>
<path d="M3170 2684 c0 -3 7 -12 15 -20 22 -22 18 -39 -11 -53 -22 -10 -30 -9
-45 5 -14 13 -16 21 -8 35 11 22 -3 26 -20 5 -9 -10 -9 -20 0 -39 16 -36 32
-39 85 -17 39 17 44 23 38 42 -3 13 -11 29 -16 36 -10 12 -38 17 -38 6z"/>
<path d="M4045 2673 c14 -34 10 -47 -18 -61 -34 -16 -57 -3 -57 34 0 15 -6 24
-15 24 -20 0 -19 -25 2 -61 18 -29 55 -40 68 -18 4 5 18 14 31 19 26 10 30 30
14 61 -13 24 -35 26 -25 2z"/>
<path d="M1654 2659 c-4 -6 1 -9 13 -7 11 2 27 -3 36 -11 19 -15 23 -1 5 17
-15 15 -45 16 -54 1z"/>
<path d="M1610 2643 c0 -4 5 -22 12 -40 11 -30 16 -33 54 -33 43 0 76 22 53
35 -6 4 -15 2 -19 -5 -4 -6 -20 -10 -36 -8 -23 2 -30 9 -32 31 -2 15 -9 27
-18 27 -8 0 -14 -3 -14 -7z"/>
<path d="M3345 2616 c-110 -18 -159 -33 -232 -69 -67 -32 -156 -109 -167 -145
-24 -76 102 -238 247 -317 37 -20 107 -48 155 -62 74 -21 108 -25 233 -25 131
0 153 3 225 27 110 37 207 90 270 148 129 118 143 217 40 298 -54 43 -80 56
-191 94 -157 54 -424 77 -580 51z m239 -25 c7 -10 93 -22 162 -21 49 1 74 -12
71 -35 -1 -5 6 -11 16 -13 9 -2 17 1 17 7 0 21 70 12 103 -13 18 -13 49 -27
70 -30 25 -5 43 -16 54 -34 10 -15 25 -33 35 -40 22 -16 32 -70 19 -105 -13
-34 -131 -153 -162 -162 -13 -4 -35 -15 -49 -25 -14 -9 -43 -23 -65 -30 -22
-7 -44 -16 -50 -20 -27 -18 -103 -29 -230 -31 -110 -2 -149 1 -184 14 -24 10
-56 17 -72 17 -16 0 -38 9 -49 20 -11 11 -26 20 -34 20 -8 0 -18 5 -21 10 -3
6 -15 10 -25 10 -10 0 -37 21 -60 47 -22 26 -54 55 -70 65 -17 10 -30 22 -30
28 0 6 -9 23 -20 38 -10 15 -22 39 -26 55 -6 28 -4 31 96 122 15 13 108 51
182 74 21 7 75 14 120 17 87 5 139 12 147 20 8 7 50 4 55 -5z"/>
<path d="M2752 2541 c-11 -6 -9 -10 7 -14 11 -3 26 -18 31 -33 9 -24 8 -31 -6
-41 -29 -21 -62 -15 -81 13 -17 26 -16 27 8 47 19 16 20 19 4 13 -11 -5 -28
-11 -37 -13 -22 -7 -22 -9 6 -58 15 -26 30 -39 42 -38 21 1 90 26 99 35 9 9
-36 98 -49 98 -6 0 -17 -4 -24 -9z"/>
<path d="M4283 2474 c-13 -20 -23 -41 -23 -48 0 -7 23 -18 51 -25 57 -15 59
-14 98 51 22 36 22 37 2 47 -11 6 -39 11 -63 11 -38 -1 -46 -5 -65 -36z m101
20 c24 -9 20 -27 -13 -58 -23 -22 -36 -27 -55 -22 -45 11 -25 66 29 79 11 2
21 5 22 6 1 0 8 -2 17 -5z"/>
<path d="M4032 2083 c-8 -3 -4 -11 13 -25 14 -11 25 -28 25 -39 0 -20 15 -26
25 -9 7 11 -32 81 -43 79 -4 0 -13 -3 -20 -6z"/>
<path d="M3967 2052 c-15 -17 -15 -20 6 -50 24 -35 42 -39 72 -16 20 16 20 16
-3 9 -16 -5 -30 -1 -43 11 -24 21 -24 33 -1 50 15 12 15 13 1 14 -9 0 -23 -8
-32 -18z"/>
<path d="M3488 1952 c-45 -20 -47 -36 -12 -73 23 -24 29 -25 55 -16 16 6 29
15 29 19 0 4 7 8 15 8 22 0 18 32 -5 58 -24 26 -32 26 -82 4z m56 -8 c27 -10
20 -51 -10 -58 -28 -7 -54 7 -54 31 0 11 11 19 47 32 1 1 8 -2 17 -5z"/>
<path d="M971 4183 c-38 -83 -16 -298 42 -421 48 -100 103 -185 129 -201 22
-13 22 -13 7 5 -25 29 -92 153 -113 207 -35 94 -56 201 -56 295 0 57 4 92 10
92 16 0 61 -29 98 -64 17 -16 32 -24 32 -17 0 14 -115 131 -129 131 -4 0 -13
-12 -20 -27z"/>
<path d="M667 3533 c-12 -12 -7 -40 10 -54 15 -13 15 -12 4 10 -14 25 -8 36
24 44 16 4 15 5 -6 6 -14 0 -29 -2 -32 -6z"/>
<path d="M783 3523 c9 -2 23 -2 30 0 6 3 -1 5 -18 5 -16 0 -22 -2 -12 -5z"/>
<path d="M695 3440 c19 -63 89 -125 250 -221 78 -46 109 -59 140 -59 39 0 38
2 -51 44 -123 59 -229 132 -294 202 -39 44 -51 52 -45 34z"/>
<path d="M973 3033 c9 -2 23 -2 30 0 6 3 -1 5 -18 5 -16 0 -22 -2 -12 -5z"/>
<path d="M830 3000 c-89 -29 -180 -66 -180 -74 0 -10 93 -55 142 -70 76 -22
346 -51 383 -41 l30 8 -40 8 c-22 4 -107 14 -188 24 -157 17 -278 44 -279 60
-2 15 87 58 177 88 44 14 71 25 60 25 -11 0 -58 -12 -105 -28z"/>
<path d="M5193 2432 c10 -11 18 -37 19 -63 1 -39 2 -40 5 -10 6 45 -3 77 -24
85 -16 6 -16 6 0 -12z"/>
<path d="M2450 2300 c8 -5 33 -10 55 -10 29 0 36 3 25 10 -8 5 -33 10 -55 10
-29 0 -36 -3 -25 -10z"/>
<path d="M1128 2174 c-16 -8 -28 -19 -28 -25 0 -5 11 -2 25 7 14 9 40 20 58
24 l32 8 -30 1 c-16 0 -42 -7 -57 -15z"/>
<path d="M1955 1854 c-113 -17 -159 -40 -60 -31 166 17 225 19 225 10 0 -6
-14 -43 -30 -84 -25 -59 -28 -75 -18 -86 7 -7 76 -33 152 -58 112 -37 142 -43
151 -33 7 7 27 51 45 98 42 110 47 116 96 100 22 -7 43 -16 47 -20 5 -4 -12
-54 -36 -111 -34 -78 -42 -107 -33 -115 18 -19 239 -107 269 -108 27 -1 31 5
61 76 18 43 35 81 39 84 4 4 39 -23 77 -61 68 -65 93 -78 71 -37 -5 10 -38 44
-71 76 -251 232 -643 352 -985 300z m386 -30 c41 -9 79 -21 86 -28 9 -8 3 -33
-27 -104 -21 -52 -41 -96 -44 -99 -7 -8 -227 64 -251 80 -15 12 -15 16 5 67
39 102 37 100 100 100 32 0 91 -7 131 -16z m374 -139 c44 -25 91 -54 104 -64
l23 -18 -34 -79 c-24 -56 -40 -80 -54 -82 -11 -1 -59 15 -107 38 -48 22 -94
40 -102 40 -30 0 -27 31 11 120 30 71 42 90 59 90 11 0 56 -20 100 -45z"/>
</g>
</svg>
